<svg width="119" height="23" viewBox="0 0 119 23" fill="none" xmlns="http://www.w3.org/2000/svg">
<path fill-rule="evenodd" clip-rule="evenodd" d="M0 0L13.2871 22.9172L26.4524 0H0ZM7.3125 4.26562L9.3848 7.92263L7.8001 10.7263H10.9695L13.0418 14.3833L18.893 4.26562H7.3125Z" fill="#43CF91"/>
<path d="M39.2017 16.2276H32.3363V4.73974H29.7812V18.3926H39.2017V16.2276Z" fill="white"/>
<path d="M44.1196 18.3926L45.5044 14.6673H51.3166L52.6819 18.3926H55.549L49.9318 4.73974H47.0062L41.389 18.3926H44.1196ZM46.3041 12.5024L47.8644 8.25047C48.0984 7.64585 48.2935 7.11924 48.43 6.67065C48.5665 7.13874 48.7421 7.66535 48.9566 8.25047L50.5169 12.5024H46.3041Z" fill="white"/>
<path d="M58.4013 13.185C58.4013 16.7152 60.4492 18.7436 63.9599 18.7436C67.4512 18.7436 69.4991 16.7152 69.4991 13.185V4.73974H66.9441V12.7949C66.9441 15.2914 65.9104 16.5787 63.9599 16.5787C62.0095 16.5787 60.9758 15.3109 60.9758 12.7949V4.73974H58.4013V13.185Z" fill="white"/>
<path d="M74.2977 18.3926H76.8527V9.16716C76.8527 8.40651 76.8332 7.78238 76.7747 7.25577L83.1525 18.3926H86.5072V4.73974H83.9522V12.9705C83.9522 13.8091 83.9717 14.4918 84.0302 15.0184L78.14 4.73974H74.2977V18.3926Z" fill="white"/>
<path d="M90.6869 11.4686C90.6869 16.0521 93.2614 18.7436 97.3378 18.7436C100.966 18.7436 103.267 16.6372 103.618 13.4581H101.063C100.77 15.3109 99.3857 16.5787 97.4158 16.5787C95.0363 16.5787 93.3199 14.6283 93.3199 11.4686C93.3199 8.44551 95.0363 6.55362 97.4743 6.55362C99.4247 6.55362 100.653 7.72386 100.907 9.53774H103.56C103.208 6.31957 100.809 4.38867 97.4743 4.38867C96.187 4.38867 95.0363 4.68123 94.0026 5.24685C91.9351 6.39759 90.6869 8.60155 90.6869 11.4686Z" fill="white"/>
<path d="M110.143 18.3926V12.4829H116.443V18.3926H118.998V4.73974H116.443V10.3179H110.143V4.73974H107.588V18.3926H110.143Z" fill="white"/>
</svg>
